<svg width="766" height="456" viewBox="0 0 766 456" fill="none" xmlns="http://www.w3.org/2000/svg">
<path d="M127.887 171.369C103.888 418.369 528.388 662.369 605.387 171.369H127.887Z" fill="#773F03" stroke="black"/>
<path d="M750.097 226.931C738.363 161.415 651.88 171.966 610.105 185.43L534.65 370.681C611.355 350.063 761.83 292.448 750.097 226.931Z" stroke="#773F03" stroke-width="30"/>
<path d="M141.982 235.474C126.913 239.919 91.4842 249.276 57.2534 249.513C38.9704 249.639 27.3574 229.346 17.5742 214.365C3.58632 192.945 4.93401 179.721 5.12005 166.529C5.2786 155.287 12.5205 147.311 17.5082 139.298C22.6166 131.091 30.8866 122.51 38.5092 114.288C46.1438 106.052 61.6648 104.48 79.4787 100.267C98.7894 95.6997 110.521 102.848 121.121 108.034C132.581 113.641 140.123 123.207 149.738 132.828C152.352 135.444 154.528 139.196 156.544 142.023C158.561 144.85 160.146 146.831 160.962 140.919C166.167 103.22 165.763 90.0997 171.759 78.6899C177.264 68.2144 192.916 56.4885 217.693 50.0544C244.441 43.1081 278.049 56.8006 302.543 65.2094C327.275 73.6998 340.205 87.6269 349.208 100.801C354.85 109.057 357.011 120.398 360.432 126.268C368.569 140.229 371.8 90.964 379.026 69.7169C384.108 54.7738 395.808 42.9 405.417 33.669C412.728 26.6457 419.84 21.641 431.958 17.2655C458.334 7.74191 484.997 3.62297 503.549 5.40556C538.819 8.79445 551.019 24.3659 559.29 33.4049C565.857 40.5819 567.513 50.7986 568.311 62.1844C570.067 87.2345 560.334 105.609 556.721 114.03C555.867 116.02 555.125 118.021 555.707 119.239C559.077 126.293 583.382 112.115 596.49 109.06C609.166 106.106 626.284 109.642 634.705 111.053C643.684 112.557 648.708 123.231 654.121 129.839C660.641 137.797 668.298 161.091 670.153 191.593C670.997 205.48 657.206 220.799 638.612 235.654C623.964 247.357 611.567 243.294 584.846 242.712C544.508 241.833 520.337 218.11 509.137 210.92C506.4 209.162 503.94 208.507 502.715 209.485C495.219 215.475 497.505 228.458 493.904 238.859C491.862 244.759 487.506 249.681 482.128 254.866C474.852 261.883 446.5 270.051 402.386 279.252C361.757 287.726 333.111 281.731 315.963 276.756C277.091 265.476 263.092 248.168 251.442 237.136C249.261 235.071 248.231 233.331 247.42 233.901C239.9 239.193 242.229 252.466 234.042 261.673C222.702 274.426 208.233 276.089 188.667 283.292C173.867 288.74 153.087 286.917 140.003 281.941C136.57 265.814 136.966 242.922 138.556 239.525C139.673 238.201 139.379 236.374 141.982 235.474Z" fill="#FFF7E4"/>
<path d="M142.572 235.3C127.855 239.669 91.9389 249.272 57.2534 249.513C38.9704 249.639 27.3574 229.346 17.5742 214.365C3.58632 192.945 4.93401 179.721 5.12005 166.529C5.2786 155.287 12.5205 147.311 17.5082 139.298C22.6166 131.091 30.8866 122.51 38.5092 114.288C46.1438 106.052 61.6648 104.48 79.4787 100.267C98.7894 95.6997 110.521 102.848 121.121 108.034C132.581 113.641 140.123 123.207 149.738 132.828C152.352 135.444 154.528 139.196 156.544 142.023C158.561 144.85 160.146 146.831 160.962 140.919C166.167 103.22 165.763 90.0997 171.759 78.6899C177.264 68.2144 192.916 56.4885 217.693 50.0544C244.441 43.1081 278.049 56.8006 302.543 65.2094C327.275 73.6998 340.205 87.6269 349.208 100.801C354.85 109.057 357.011 120.398 360.432 126.268C368.569 140.229 371.8 90.964 379.026 69.7169C384.108 54.7738 395.808 42.9 405.417 33.669C412.728 26.6457 419.84 21.641 431.958 17.2655C458.334 7.74191 484.997 3.62297 503.549 5.40556C538.819 8.79445 551.019 24.3659 559.29 33.4049C565.857 40.5819 567.513 50.7986 568.311 62.1844C570.067 87.2345 560.334 105.609 556.721 114.03C555.867 116.02 555.125 118.021 555.707 119.239C559.077 126.293 583.382 112.115 596.49 109.06C609.166 106.106 626.284 109.642 634.705 111.053C643.684 112.557 648.708 123.231 654.121 129.839C660.641 137.797 668.298 161.091 670.153 191.593C670.997 205.48 657.206 220.799 638.612 235.654C623.964 247.357 611.567 243.294 584.846 242.712C544.508 241.833 520.337 218.11 509.137 210.92C506.4 209.162 503.94 208.507 502.715 209.485C495.219 215.475 497.505 228.458 493.904 238.859C491.862 244.759 487.506 249.681 482.128 254.866C474.852 261.883 446.5 270.051 402.386 279.252C361.757 287.726 333.111 281.731 315.963 276.756C277.091 265.476 263.092 248.168 251.442 237.136C249.261 235.071 248.231 233.331 247.42 233.901C239.9 239.193 242.229 252.466 234.042 261.673C222.702 274.426 208.233 276.089 188.667 283.292C173.867 288.74 153.087 286.917 140.003 281.941C136.57 265.814 136.966 242.922 138.556 239.525C139.751 238.109 139.331 236.116 142.572 235.3Z" stroke="#FBECC7" stroke-width="10" stroke-linecap="round"/>
</svg>
